<?xml version="1.0" standalone="no"?>
<!DOCTYPE svg PUBLIC "-//W3C//DTD SVG 20010904//EN"
 "http://www.w3.org/TR/2001/REC-SVG-20010904/DTD/svg10.dtd">
<svg version="1.0" xmlns="http://www.w3.org/2000/svg"
 width="700.000000pt" height="700.000000pt" viewBox="0 0 700.000000 700.000000"
 preserveAspectRatio="xMidYMid meet">
<metadata>
Created by potrace 1.11, written by Peter Selinger 2001-2013
</metadata>
<g transform="translate(0.000000,700.000000) scale(0.100000,-0.100000)"
fill="#000000" stroke="none">
<path d="M2980 6920 c-107 -43 -206 -83 -220 -89 -14 -5 -106 -42 -205 -81
-99 -39 -189 -75 -200 -80 -11 -5 -281 -114 -600 -241 -319 -127 -593 -237
-610 -244 -16 -7 -230 -93 -475 -190 -245 -97 -458 -183 -475 -190 -16 -8 -67
-28 -112 -45 l-83 -31 0 -2070 0 -2069 1590 -795 1590 -795 320 0 320 0 1590
795 1590 795 0 2069 0 2068 -257 103 c-142 56 -271 108 -288 115 -16 7 -61 25
-100 40 -38 15 -83 33 -100 40 -16 7 -106 43 -200 80 -93 37 -183 73 -200 80
-16 7 -61 25 -100 40 -38 15 -83 33 -100 40 -16 7 -106 43 -200 80 -93 37
-183 73 -200 80 -16 7 -61 25 -100 40 -38 15 -83 33 -100 40 -16 7 -151 61
-300 120 -148 59 -283 113 -300 120 -16 7 -106 43 -200 80 -93 37 -183 73
-200 80 -16 7 -61 25 -100 40 -38 15 -84 33 -102 41 -25 11 -96 14 -355 13
l-323 0 -195 -79z"/>
</g>
</svg>
