<svg version="1.1" id="Layer_1" xmlns="http://www.w3.org/2000/svg" xmlns:xlink="http://www.w3.org/1999/xlink" x="0px" y="0px"
	 viewBox="0 0 512 512" style="enable-background:new 0 0 512 512;" xml:space="preserve">
<path class="th-footer-d" d="M29.091,512C13.024,512,0,498.976,0,482.909V357.211c0-16.066,13.024-29.09,29.09-29.09h453.82 c16.066,0,29.09,13.024,29.09,29.09v125.698c0,16.066-13.024,29.09-29.09,29.09H29.091V512z"/>
<path class="th-footer-l" d="M512,420.061v-62.849c0-16.066-13.024-29.091-29.09-29.091H29.091 C13.024,328.122,0,341.146,0,357.213v62.85h512V420.061z"/>
<path class="th-secondary-d" d="M487.147,264.46l-62.849-108.857c-8.033-13.913-25.824-18.681-39.738-10.648L152.533,278.915v212.324 l323.967-187.043C490.412,296.164,495.18,278.373,487.147,264.46z"/>
<path class="th-secondary-l" d="M152.533,385.077l303.19-175.047l-31.425-54.429c-8.033-13.913-25.824-18.681-39.738-10.648 L152.533,278.915V385.077z"/>
<path class="th-primary-d" d="M356.702,87.944l-108.8-62.949c-13.906-8.045-31.702-3.294-39.748,10.611l-55.621,96.136v367.176 l214.78-371.228C375.358,113.785,370.607,95.989,356.702,87.944z"/>
<path class="th-primary-l" d="M152.533,315.331L302.302,56.47l-54.4-31.474c-13.906-8.045-31.702-3.294-39.747,10.611 l-55.621,96.136v183.588H152.533z"/>
<path class="th-surface-d" d="M183.878,482.909c0,16.066-13.024,29.09-29.09,29.09H29.091C13.024,512,0,498.976,0,482.909V29.09 C0,13.024,13.024,0,29.091,0h125.698c16.066,0,29.09,13.024,29.09,29.09L183.878,482.909L183.878,482.909z"/>
<path class="th-surface-l" d="M91.939,0H29.091C13.024,0,0,13.024,0,29.09v453.82C0,498.975,13.024,512,29.091,512H91.94V0H91.939z"/>
<circle class="th-on-surface" cx="91.939" cy="420.059" r="27.291"/>
</svg>