<?xml version="1.0" encoding="UTF-8" standalone="no"?>
<svg
   xmlns:svg="http://www.w3.org/2000/svg"
   xmlns="http://www.w3.org/2000/svg"
   width="200"
   height="162.535"
   version="1.1">
  <path
     d="m 200,19.24 c -7.358,3.264 -15.267,5.469 -23.566,6.461 8.471,-5.078 14.978,-13.119 18.041,-22.701 -7.929,4.703 -16.71,8.117 -26.057,9.957 C 160.934,4.982 150.27,0 138.468,0 115.808,0 97.435,18.371 97.435,41.031 c 0,3.216 0.363,6.348 1.062,9.351 C 64.395,48.671 34.161,32.335 13.923,7.51 10.391,13.57 8.367,20.618 8.367,28.138 c 0,14.236 7.244,26.795 18.254,34.153 -6.726,-0.213 -13.053,-2.059 -18.585,-5.132 -0.004,0.171 -0.004,0.343 -0.004,0.516 0,19.88 14.144,36.464 32.915,40.234 -3.443,0.938 -7.068,1.439 -10.81,1.439 -2.644,0 -5.214,-0.258 -7.72,-0.736 5.222,16.301 20.375,28.165 38.331,28.495 -14.043,11.006 -31.735,17.565 -50.96,17.565 -3.312,0 -6.578,-0.194 -9.788,-0.574 18.159,11.643 39.727,18.437 62.899,18.437 75.473,0 116.746,-62.524 116.746,-116.747 0,-1.779 -0.04,-3.548 -0.119,-5.309 C 187.543,34.695 194.499,27.468 200,19.24 Z"
     style="stroke:#fff;fill:#fff" />
</svg>
